<svg width="117" height="26" viewBox="0 0 117 26" fill="none" xmlns="http://www.w3.org/2000/svg">
<path d="M25.594 11.9277H13.2222V14.8139H25.594V11.9277Z" fill="#221F24"/>
<path d="M38.5436 11.9277H27.2615V14.8139H38.5436V11.9277Z" fill="#221F24"/>
<path d="M49.0219 11.9277H40.8994V14.8139H53.209C52.6521 13.1391 51.145 11.9277 49.0219 11.9277Z" fill="#221F24"/>
<path d="M63.9555 11.9277H55.833V14.8139H68.1426C67.5857 13.1391 66.0786 11.9277 63.9555 11.9277Z" fill="#221F24"/>
<path d="M78.2888 11.9277H74.8843L73.8428 14.8139H79.3133L78.2888 11.9277Z" fill="#221F24"/>
<path d="M88.2386 11.9277H84.9224V14.8139H88.2386V11.9277Z" fill="#221F24"/>
<path d="M94.1154 11.9277H90.8232V14.8139H95.8181L94.1154 11.9277Z" fill="#221F24"/>
<path d="M103.551 11.9277H100.458V14.8139H103.551V11.9277Z" fill="#221F24"/>
</svg>
