<svg width="60" height="88" viewBox="0 0 60 88" fill="none" xmlns="http://www.w3.org/2000/svg">
<path d="M54.4276 0H29.8176C25.5976 0 22.6676 2.31 21.5376 6.53L8.21761 56.25C7.08761 60.47 8.77761 62.78 12.9976 62.78H25.0476C29.2676 62.78 32.1976 60.47 33.3276 56.25L36.5576 44.2L29.3776 39.86C29.3776 38.44 30.0876 37.67 31.3976 37.67H44.6276C48.6476 37.67 51.4776 35.36 52.6076 31.14L59.1976 6.53C60.3276 2.31 58.6376 0 54.4176 0H54.4276Z" fill="#7B45FF"/>
<path d="M21.2176 87.8896C25.4376 87.8896 28.3376 85.6796 29.4176 81.6596C30.4976 77.6396 28.8076 75.3296 24.5876 75.3296H8.5176C4.2976 75.3296 1.39761 77.5396 0.317615 81.5596C-0.762385 85.5796 0.927601 87.8896 5.1476 87.8896" fill="#7B45FF"/>
</svg>
